<svg xmlns="http://www.w3.org/2000/svg" width="62.936" height="52.973" viewBox="0 0 62.936 52.973">
  <g id="Group_22" data-name="Group 22" transform="translate(-714.356 -339.405)">
    <g id="Group_21" data-name="Group 21">
      <path id="Path_23" data-name="Path 23" d="M735.582,392.378a7.1,7.1,0,1,1,7.1-7.1A7.1,7.1,0,0,1,735.582,392.378Z" fill="#fff"/>
      <path id="Path_24" data-name="Path 24" d="M767.436,392.378a7.1,7.1,0,1,1,7.1-7.1A7.1,7.1,0,0,1,767.436,392.378Z" fill="#fff"/>
      <path id="Path_25" data-name="Path 25" d="M767.436,386.377H737.162a2.674,2.674,0,0,1-2.546-3.489l4.066-9.99a1.094,1.094,0,0,1,2.026.826l-4.037,9.911a.5.5,0,0,0,.1.356.484.484,0,0,0,.392.2h30.274a1.094,1.094,0,1,1,0,2.188Z" fill="#fff"/>
      <g id="Group_20" data-name="Group 20">
        <path id="Path_26" data-name="Path 26" d="M776.775,346.6a2.685,2.685,0,0,0-2.157-1.091l-45.595.015-2.143-4.908a1.093,1.093,0,0,0-1-.657H715.746a1.094,1.094,0,0,0,0,2.188h9.416l13.372,30.638a2.667,2.667,0,0,0,2.455,1.616h26.2a2.668,2.668,0,0,0,2.551-1.869l7.431-23.546A2.684,2.684,0,0,0,776.775,346.6Zm-11.821,21.47H742.585a1.094,1.094,0,0,1,0-2.188h22.369a1.094,1.094,0,0,1,0,2.188Zm1.909-6.908H740.676a1.094,1.094,0,1,1,0-2.188h26.187a1.094,1.094,0,0,1,0,2.188Zm1.566-6.909h-29.32a1.094,1.094,0,0,1,0-2.188h29.32a1.094,1.094,0,0,1,0,2.188Z" fill="#fff"/>
      </g>
      <path id="Path_27" data-name="Path 27" d="M717.806,341.13a1.725,1.725,0,1,1-1.725-1.725A1.725,1.725,0,0,1,717.806,341.13Z" fill="#fff"/>
    </g>
    <circle id="Ellipse_2" data-name="Ellipse 2" cx="4.166" cy="4.166" r="4.166" transform="translate(763.549 381.116)" fill="#797979"/>
    <circle id="Ellipse_3" data-name="Ellipse 3" cx="4.166" cy="4.166" r="4.166" transform="translate(731.139 381.116)" fill="#797979"/>
  </g>
</svg>
