<svg xmlns="http://www.w3.org/2000/svg" width="61.364" height="55.777" viewBox="0 0 61.364 55.777">
  <g id="Group_28" data-name="Group 28" transform="translate(-723.692 -1268.933)">
    <path id="Path_40" data-name="Path 40" d="M780.621,1280.711H728.183l-.094-.311q7.793-3.513,15.586-7.024c3.081-1.383,6.155-2.786,9.273-4.081a3.484,3.484,0,0,1,2.4-.228c8.482,3.7,16.922,7.5,25.372,11.268Zm-26.084-8.706a3.056,3.056,0,0,0-3.14,3.081,2.839,2.839,0,0,0,2.834,3.081,3.081,3.081,0,0,0,3.326-2.894A3.267,3.267,0,0,0,754.537,1272.005Z" fill="#fff"/>
    <path id="Path_41" data-name="Path 41" d="M723.692,1324.71V1320.3h61.364v4.411Z" fill="#fff"/>
    <path id="Path_42" data-name="Path 42" d="M776.934,1312.391h-6.761V1289h6.761Z" fill="#fff"/>
    <path id="Path_43" data-name="Path 43" d="M764.185,1312.389H757.4v-23.405h6.781Z" fill="#fff"/>
    <path id="Path_44" data-name="Path 44" d="M744.661,1288.883h6.809v23.436h-6.809Z" fill="#fff"/>
    <path id="Path_45" data-name="Path 45" d="M731.871,1288.929h6.868v23.343h-6.868Z" fill="#fff"/>
    <path id="Path_46" data-name="Path 46" d="M782.111,1317.184H727.036v-2.554h54.94C782.019,1315.426,782.061,1316.223,782.111,1317.184Z" fill="#fff"/>
    <path id="Path_47" data-name="Path 47" d="M782.016,1284.053v2.455h-54.99v-2.455Z" fill="#fff"/>
  </g>
</svg>
