<svg xmlns="http://www.w3.org/2000/svg" width="50.737" height="42.627" viewBox="0 0 50.737 42.627">
  <g id="Group_5" data-name="Group 5" transform="translate(-535.094 -1787.357)">
    <g id="_341_Bubble_chat_comment" data-name="341, Bubble, chat, comment">
      <g id="Group_4" data-name="Group 4">
        <path id="Path_3" data-name="Path 3" d="M556.423,1805.542a3.234,3.234,0,0,0,3.362-3.472,3.247,3.247,0,1,0-3.362,3.472Z" fill="none" stroke="#fff" stroke-miterlimit="10" stroke-width="1.9"/>
        <path id="Path_4" data-name="Path 4" d="M565.633,1805.544a3.236,3.236,0,0,0,3.238-3.616,3.273,3.273,0,0,0-2.878-2.878,3.236,3.236,0,0,0-3.615,3.238A3.355,3.355,0,0,0,565.633,1805.544Z" fill="none" stroke="#fff" stroke-miterlimit="10" stroke-width="1.9"/>
        <path id="Path_5" data-name="Path 5" d="M574.624,1805.538a3.235,3.235,0,0,0,3.452-3.454,3.294,3.294,0,0,0-3.049-3.046,3.235,3.235,0,0,0-3.451,3.451A3.3,3.3,0,0,0,574.624,1805.538Z" fill="none" stroke="#fff" stroke-miterlimit="10" stroke-width="1.9"/>
        <path id="Path_6" data-name="Path 6" d="M564.58,1818.014v5.724H541.5a1.084,1.084,0,0,0-.766.287l-4.692,3.926v-26.43h10.04m38.8,22.792-6.8-5.65a1.084,1.084,0,0,0-.766-.287H546.577v-30.069h38.3v36.006Z" fill="none" stroke="#fff" stroke-miterlimit="10" stroke-width="1.9"/>
      </g>
    </g>
  </g>
</svg>
