<svg xmlns="http://www.w3.org/2000/svg" width="59.618" height="46.767" viewBox="0 0 59.618 46.767">
  <g id="Group_16" data-name="Group 16" transform="translate(-724.988 -654.198)">
    <path id="Path_15" data-name="Path 15" d="M751.529,700.963q-11.37,0-22.74,0c-3.227,0-3.787-.547-3.79-3.674q-.017-15.326-.006-30.652c0-3.371.47-3.809,3.894-3.816,2.636-.005,5.281.123,7.907-.043a3.967,3.967,0,0,1,4.125,2c1.445,2.488,3.569,3.106,6.409,3.047,9.059-.188,18.125-.078,27.188-.065,3.019,0,3.61.573,3.619,3.621q.039,12.978,0,25.956c-.008,3.014-.634,3.618-3.623,3.622Q763.022,700.975,751.529,700.963Z" fill="#e4d0bc"/>
    <path id="Path_16" data-name="Path 16" d="M780.869,692.407c0-7.13.028-14.124-.027-21.118a8.8,8.8,0,0,0-.63-3.584c-1.027-2.179-3.021-2.8-5.348-2.787-9.316.04-18.632.072-27.946-.054a4.78,4.78,0,0,1-3.484-1.561c-1.9-2.851-4.388-3.716-7.608-3.351a34.441,34.441,0,0,1-3.893.024c-1.249-4.319-.311-5.637,3.865-5.639a39.752,39.752,0,0,0,4.2-.024c3.736-.4,6.934.123,9.042,3.788.416.723,1.963,1.108,2.993,1.117,9.562.082,19.125.043,28.688.049,3.392,0,3.877.489,3.878,3.844,0,8.657.015,17.314-.01,25.971C784.582,691.832,784,692.367,780.869,692.407Z" fill="#e4d0bc"/>
  </g>
</svg>
