<svg xmlns="http://www.w3.org/2000/svg" width="43.417" height="41.283" viewBox="0 0 43.417 41.283">
  <path id="Path_2" data-name="Path 2" d="M750.732,1827.243a5.939,5.939,0,0,1-.85-.3,2.571,2.571,0,0,1-1.477-2.39q-.015-8,0-16v-.3h-3.609a1.809,1.809,0,0,1-1.25-3.129q4.786-4.494,9.576-8.987l8.526-8c.592-.555,1.182-1.113,1.777-1.665a1.8,1.8,0,0,1,2.511,0l5.815,5.348c.036.033.074.063.145.124.006-.1.014-.172.015-.243.005-.565-.014-1.131.02-1.694a1.758,1.758,0,0,1,1.778-1.64q1.822,0,3.646,0a1.772,1.772,0,0,1,1.791,1.785q0,4.133,0,8.266a.442.442,0,0,0,.138.355q3,2.9,5.988,5.815c.208.2.412.407.62.608a2.189,2.189,0,0,1,.5.94v.593a.393.393,0,0,0-.035.075,1.786,1.786,0,0,1-1.826,1.451h-3.565v16.279a2.706,2.706,0,0,1-1.951,2.607c-.126.038-.253.071-.38.106Zm33.768-20.807.045-.069a1.087,1.087,0,0,1-.172-.113q-3.32-3.227-6.64-6.451a1.26,1.26,0,0,1-.4-.977c.007-2.791,0-5.582,0-8.372v-.284h-3.617v.262q0,1.77,0,3.539a1.219,1.219,0,0,1-.029.315.923.923,0,0,1-1.564.353q-3.625-3.363-7.275-6.7c-.055-.05-.114-.095-.178-.148L744.8,1806.436H749.1c.773,0,1.114.338,1.114,1.107q0,8.456,0,16.913a.89.89,0,0,0,.974.971h7.151v-.325c0-3.759.016-7.517-.008-11.276a2.792,2.792,0,0,1,2.861-2.873c2.352.04,4.705.011,7.058.011a2.69,2.69,0,0,1,2.75,2.744v11.7c.084.006.145.013.207.013q3.508,0,7.015,0a.959.959,0,0,0,.251-.029.9.9,0,0,0,.666-.96v-16.955a.931.931,0,0,1,1.045-1.046H784.5Zm-15.306,18.974v-11.634a.9.9,0,0,0-1-.995c-2.332,0-4.663.013-6.994-.009a.991.991,0,0,0-1.059,1.062c.011,3.779.005,7.558.005,11.337v.239Z" transform="translate(-742.966 -1785.96)" fill="#e3cfbb"/>
</svg>
