<svg xmlns="http://www.w3.org/2000/svg" width="50.007" height="56.573" viewBox="0 0 50.007 56.573">
  <g id="Group_23" data-name="Group 23" transform="translate(-727.816 -1119.716)">
    <path id="Path_28" data-name="Path 28" d="M758.667,1153.306c-1.231.363-2.475.677-3.715,1.007l-16.632,4.4c-.225.06-.455.1-.557.119a1.925,1.925,0,0,1-2.041-1.632q-2.29-8.625-4.579-17.251-1.581-5.946-3.16-11.894c-.456-1.711-.014-2.489,1.739-2.958q9.947-2.65,19.9-5.289a1.846,1.846,0,0,1,2.467,1.467q3.975,14.937,7.94,29.877A1.713,1.713,0,0,1,758.667,1153.306Z" fill="#fff"/>
    <path id="Path_29" data-name="Path 29" d="M768.987,1134.2q-3.684,13.752-7.4,27.493c-.209.769-.414,1.54-.627,2.309a1.635,1.635,0,0,1-2.094,1.345c-1.067-.209-2.111-.535-3.162-.821q-7.654-2.088-15.308-4.182c-.186-.05-.369-.108-.7-.209,1.26-.34,2.379-.647,3.5-.945q7.784-2.066,15.565-4.128a3.662,3.662,0,0,0,2.8-4.762q-2.778-10.492-5.562-20.981c-.045-.169-.083-.339-.15-.609.462.111.866.2,1.264.3,3.435.932,6.867,1.873,10.3,2.8a2,2,0,0,1,1.567,1.253A2.15,2.15,0,0,1,768.987,1134.2Z" fill="#fff"/>
    <path id="Path_30" data-name="Path 30" d="M777.132,1153.953,755.685,1175.4c-1.178,1.177-2.081,1.185-3.25.024q-6.618-6.567-13.232-13.134a1.631,1.631,0,0,1-.42-.608c.83.219,1.663.432,2.49.658q8.246,2.253,16.489,4.508a4.093,4.093,0,0,0,2.856-.036,3.368,3.368,0,0,0,1.972-2.31q2.854-10.62,5.722-21.237c.055-.2.116-.4.222-.766.455.481.809.868,1.177,1.241q3.715,3.764,7.435,7.523A1.664,1.664,0,0,1,777.132,1153.953Z" fill="#fff"/>
  </g>
</svg>
