<svg xmlns="http://www.w3.org/2000/svg" width="38.624" height="43.094" viewBox="0 0 38.624 43.094">
  <g id="Group_4" data-name="Group 4" transform="translate(-37.61 -81.298)">
    <path id="Path_1" data-name="Path 1" d="M75.519,116.523c-4.58-2.068-4.754-10.945-4.757-11.169V99.4a13.862,13.862,0,0,0-8.48-12.759,5.36,5.36,0,0,0-10.72,0A13.861,13.861,0,0,0,43.083,99.4v5.956c0,.224-.178,9.1-4.758,11.169a1.216,1.216,0,0,0,.5,2.323h11.61a6.825,6.825,0,0,0,1.8,3.514,6.411,6.411,0,0,0,9.365,0,6.832,6.832,0,0,0,1.8-3.514h11.61a1.215,1.215,0,0,0,.5-2.323Zm-6.033-4.253a13.47,13.47,0,0,0,2.13,4.145H42.228a13.47,13.47,0,0,0,2.13-4.145ZM56.922,83.729a2.935,2.935,0,0,1,2.815,2.118,13.9,13.9,0,0,0-5.63,0A2.935,2.935,0,0,1,56.922,83.729ZM45.513,105.361V99.4a11.409,11.409,0,1,1,22.818,0v5.973a25.464,25.464,0,0,0,.515,4.469H45A25.3,25.3,0,0,0,45.513,105.361Zm11.409,16.6a4.262,4.262,0,0,1-3.993-3.115h7.986A4.261,4.261,0,0,1,56.922,121.961Z" fill="#fff"/>
  </g>
</svg>
