<svg xmlns="http://www.w3.org/2000/svg" width="101.332" height="101.332" viewBox="0 0 101.332 101.332">
  <g id="Group_11" data-name="Group 11" transform="translate(-712.825 -157.339)">
    <circle id="Ellipse_2" data-name="Ellipse 2" cx="50.225" cy="50.225" r="50.225" transform="translate(713.265 157.78)" fill="none" stroke="#fff" stroke-miterlimit="10" stroke-width="0.881"/>
    <g id="Group_10" data-name="Group 10">
      <path id="Path_13" data-name="Path 13" d="M813.716,208.005a50.076,50.076,0,0,1-15.073,35.872q-1.227,1.2-2.536,2.32a50.157,50.157,0,0,1-65.234,0q-1.306-1.116-2.535-2.32a50.225,50.225,0,1,1,85.378-35.872Z" fill="#e0e0e0"/>
      <path id="Path_14" data-name="Path 14" d="M798.643,243.877q-1.227,1.2-2.536,2.32a50.157,50.157,0,0,1-65.234,0q-1.306-1.116-2.535-2.32A19.587,19.587,0,0,1,740.916,231.7l15.019-4.744v-2.479c-1.874-1.1-3.566-2.371-4.956-3.323a11.312,11.312,0,0,1-4.82-7.541l-.8-4.789a4.527,4.527,0,0,1-4.533-4.534V193.711a22.665,22.665,0,0,1,45.33,0v10.577a4.527,4.527,0,0,1-4.532,4.534l-.8,4.789a11.335,11.335,0,0,1-4.835,7.541c-1.391.936-3.053,2.22-4.941,3.323v2.479l15,4.744A19.591,19.591,0,0,1,798.643,243.877Z" fill="#9e9e9e"/>
    </g>
  </g>
</svg>
