<svg xmlns="http://www.w3.org/2000/svg" width="484.914" height="40.876" viewBox="0 0 484.914 40.876">
  <g id="Group_19" data-name="Group 19" transform="translate(-185.808 -1635.569)">
    <path id="Path_17" data-name="Path 17" d="M611.981,1670.078Zm16.573-29.348Z" fill="#fff"/>
    <g id="Group_13" data-name="Group 13">
      <path id="Path_18" data-name="Path 18" d="M336.17,1655.411a18.988,18.988,0,0,0-37.949-.358c-.013.278-.022.557-.022.837a18.9,18.9,0,0,0,2.589,9.565.28.28,0,0,1,.024.228l-3.364,10a.175.175,0,0,0,.218.223l10.347-3.312a.27.27,0,0,1,.212.02,19,19,0,0,0,27.954-16.724C336.179,1655.752,336.17,1655.411,336.17,1655.411Z" fill="none" stroke="#fff" stroke-miterlimit="10" stroke-width="1.049"/>
      <path id="Path_19" data-name="Path 19" d="M326.667,1660.663a4.3,4.3,0,0,0-.986-.613c-.34-.169-2.841-1.394-3.311-1.562-.4-.145-.859-.309-1.267.3-.311.46-1.219,1.521-1.515,1.856-.208.236-.4.313-.858.083a16.639,16.639,0,0,1-3.841-2.349,14.145,14.145,0,0,1-2.65-3.276c-.211-.356-.074-.522.186-.783.161-.156.866-1.01.922-1.092.113-.171.313-.582.313-.582a1.044,1.044,0,0,0-.036-.982c-.082-.158-1.364-3.247-1.486-3.537-.366-.873-.756-.918-1.129-.9-.182.013-1.879.026-2.42.613l-.1.1a5.383,5.383,0,0,0-1.635,3.989,6.091,6.091,0,0,0,.255,1.673,10.892,10.892,0,0,0,1.746,3.371c.018.024,1.26,1.748,1.881,2.463a17.016,17.016,0,0,0,6.42,4.806c2.859,1.117,4.08,1.372,4.773,1.372a10.366,10.366,0,0,0,1.08-.167c.873-.078,2.95-1.16,3.386-2.375A3.955,3.955,0,0,0,326.667,1660.663Z" fill="none" stroke="#fff" stroke-miterlimit="10" stroke-width="1.1"/>
    </g>
    <g id="Group_14" data-name="Group 14">
      <path id="Path_20" data-name="Path 20" d="M216.717,1659.449a4.964,4.964,0,0,0-1.137-.706c-.392-.2-3.275-1.607-3.817-1.8-.464-.167-.989-.356-1.46.345-.359.53-1.406,1.753-1.747,2.139-.239.272-.458.361-.989.1a19.139,19.139,0,0,1-4.428-2.708,16.294,16.294,0,0,1-3.055-3.777c-.244-.41-.085-.6.215-.9.185-.181,1-1.165,1.063-1.259.129-.2.361-.671.361-.671a1.2,1.2,0,0,0-.043-1.132c-.094-.183-1.572-3.743-1.713-4.078-.421-1.006-.871-1.058-1.3-1.034-.21.015-2.166.03-2.79.707l-.109.116a6.208,6.208,0,0,0-1.885,4.6,7.064,7.064,0,0,0,.293,1.928,12.572,12.572,0,0,0,2.014,3.887c.021.027,1.452,2.015,2.168,2.839a19.615,19.615,0,0,0,7.4,5.541c3.3,1.288,4.7,1.582,5.5,1.582a11.9,11.9,0,0,0,1.245-.193c1.007-.09,3.4-1.337,3.9-2.738A4.559,4.559,0,0,0,216.717,1659.449Z" fill="none" stroke="#fff" stroke-miterlimit="10" stroke-width="1.1"/>
      <circle id="Ellipse_3" data-name="Ellipse 3" cx="18.994" cy="18.994" r="18.994" transform="translate(186.358 1636.119)" fill="none" stroke="#fff" stroke-miterlimit="10" stroke-width="1.1"/>
    </g>
    <circle id="Ellipse_4" data-name="Ellipse 4" cx="18.994" cy="18.994" r="18.994" transform="translate(520.728 1637.258)" fill="none" stroke="#fff" stroke-miterlimit="10" stroke-width="1.1"/>
    <g id="Group_15" data-name="Group 15">
      <circle id="Ellipse_5" data-name="Ellipse 5" cx="18.994" cy="18.994" r="18.994" transform="translate(409.271 1636.119)" fill="none" stroke="#fff" stroke-miterlimit="10" stroke-width="1.1"/>
      <path id="Path_21" data-name="Path 21" d="M430.138,1651.216V1649.2a1.066,1.066,0,0,1,1.113-1.209h2.826v-4.312l-3.891-.017c-4.319,0-5.3,3.217-5.3,5.277v2.275h-2.5v5.036h2.518v12.589h5.036v-12.589h3.737l.459-5.036Z" fill="none" stroke="#fff" stroke-miterlimit="10" stroke-width="1.1"/>
    </g>
    <circle id="Ellipse_6" data-name="Ellipse 6" cx="18.994" cy="18.994" r="18.994" transform="translate(632.184 1637.426)" fill="none" stroke="#fff" stroke-miterlimit="10" stroke-width="1.1"/>
    <g id="Group_17" data-name="Group 17">
      <g id="Group_16" data-name="Group 16">
        <path id="Path_22" data-name="Path 22" d="M651.178,1662.091a5.67,5.67,0,1,0-5.671-5.669A5.676,5.676,0,0,0,651.178,1662.091Z" fill="none" stroke="#fff" stroke-miterlimit="10" stroke-width="1.1"/>
      </g>
      <path id="Path_23" data-name="Path 23" d="M656.834,1665.84H645.522a3.855,3.855,0,0,1-3.85-3.85v-11.139a3.855,3.855,0,0,1,3.85-3.85h11.312a3.854,3.854,0,0,1,3.85,3.85v11.139A3.854,3.854,0,0,1,656.834,1665.84Z" fill="none" stroke="#fff" stroke-miterlimit="10" stroke-width="1.1"/>
    </g>
    <g id="Group_18" data-name="Group 18">
      <path id="Path_24" data-name="Path 24" d="M546.561,1662.758l-5.352-7.776-.6-.879-3.829-5.562-.317-.461h-4.705l1.148,1.667,5.09,7.4.6.879,4.091,5.942.317.461h4.7Zm-3,.6-4.249-6.174-.605-.879-4.931-7.164H535.9l3.987,5.794.606.878,5.192,7.545Z" fill="#fff" stroke="#fff" stroke-miterlimit="10" stroke-width="0.275"/>
      <path id="Path_25" data-name="Path 25" d="M538.709,1656.308l.605.879-.717.835-5.5,6.4h-1.357l6.256-7.282Z" fill="#fff" stroke="#fff" stroke-miterlimit="10" stroke-width="0.275"/>
      <path id="Path_26" data-name="Path 26" d="M547.142,1648.08l-5.933,6.9-.717.834-.605-.879.717-.835,4.019-4.678,1.162-1.345Z" fill="#fff" stroke="#fff" stroke-miterlimit="10" stroke-width="0.275"/>
    </g>
  </g>
</svg>
