<svg xmlns="http://www.w3.org/2000/svg" width="63.312" height="69.526" viewBox="0 0 63.312 69.526">
  <g id="Group_19" data-name="Group 19" transform="translate(-722.326 -955.563)">
    <g id="Group_17" data-name="Group 17">
      <path id="Path_18" data-name="Path 18" d="M772.562,999.512h0a2.974,2.974,0,0,1-2.975-2.974V984.114a2.974,2.974,0,0,1,2.975-2.974h0a2.973,2.973,0,0,1,2.974,2.974v12.424A2.973,2.973,0,0,1,772.562,999.512Z" fill="#fff"/>
      <path id="Path_19" data-name="Path 19" d="M737.781,1004.848h0a2.975,2.975,0,0,0,2.975-2.974v-23.1a2.975,2.975,0,0,0-2.975-2.974h0a2.974,2.974,0,0,0-2.974,2.974v23.1A2.974,2.974,0,0,0,737.781,1004.848Z" fill="#fff"/>
      <path id="Path_20" data-name="Path 20" d="M725.3,996.505h0a2.975,2.975,0,0,0,2.975-2.975v-6.408a2.974,2.974,0,0,0-2.975-2.974h0a2.973,2.973,0,0,0-2.974,2.974v6.408A2.974,2.974,0,0,0,725.3,996.505Z" fill="#fff"/>
      <path id="Path_21" data-name="Path 21" d="M785.638,990.326a2.787,2.787,0,1,1-2.787-2.787A2.787,2.787,0,0,1,785.638,990.326Z" fill="#fff"/>
    </g>
    <g id="Group_18" data-name="Group 18">
      <path id="Path_22" data-name="Path 22" d="M760.671,965.636h-.925a2.512,2.512,0,0,0-2.512,2.512v4.817A2.332,2.332,0,0,1,754.9,975.3h0a2.332,2.332,0,0,1-2.331-2.332V958.6a3.018,3.018,0,0,0-2.9-3.04,2.975,2.975,0,0,0-3.053,2.973v63.511a3.018,3.018,0,0,0,2.9,3.04,2.974,2.974,0,0,0,3.053-2.973v-14.428a2.332,2.332,0,0,1,2.331-2.332h0a2.332,2.332,0,0,1,2.332,2.332v4.817a2.512,2.512,0,0,0,2.512,2.512h.925a2.512,2.512,0,0,0,2.512-2.512V968.148A2.512,2.512,0,0,0,760.671,965.636Zm-3.084,32.555a2.063,2.063,0,0,1-2.063,2.062h0a2.063,2.063,0,0,1-2.063-2.062V981.735a2.063,2.063,0,0,1,2.063-2.063h0a2.063,2.063,0,0,1,2.063,2.063Z" fill="#fff"/>
    </g>
  </g>
</svg>
