<svg xmlns="http://www.w3.org/2000/svg" width="58.596" height="50.986" viewBox="0 0 58.596 50.986">
  <path id="Path_17" data-name="Path 17" d="M728.209,813.287h48.944a3.591,3.591,0,0,1,3.589,3.527V824.3H765.4a4.649,4.649,0,0,0-4.58,4.579v9.467a4.292,4.292,0,0,0,1.362,3.217,4.4,4.4,0,0,0,3.218,1.362h15.343v7.487a3.765,3.765,0,0,1-1.052,2.536,3.715,3.715,0,0,1-2.537.989H728.209a3.561,3.561,0,0,1-2.473-.989,3.765,3.765,0,0,1-1.052-2.536v-33.6a3.5,3.5,0,0,1,1.052-2.476,3.365,3.365,0,0,1,2.473-1.051Zm37.19,13.551h15.9a2.007,2.007,0,0,1,1.978,2.043v9.467a2.007,2.007,0,0,1-1.978,2.041H765.4a2.01,2.01,0,0,1-1.984-2.041v-9.467a2.011,2.011,0,0,1,1.984-2.043ZM728.15,811.184c10.95-2.723,30.257-5.508,41.146-8.231a2.024,2.024,0,0,1,1.979,1.177q.931,3.527,1.858,7.054Zm44.922,18.377a3.96,3.96,0,1,1-3.963,3.959,3.962,3.962,0,0,1,3.963-3.959Z" transform="translate(-724.684 -802.953)" fill="#fff" fill-rule="evenodd"/>
</svg>
