<svg xmlns="http://www.w3.org/2000/svg" width="418.814" height="260.437" viewBox="0 0 418.814 260.437">
  <g id="Group_1" data-name="Group 1" transform="translate(-233.373 -791.742)" opacity="0.8">
    <line id="Line_2" data-name="Line 2" x2="418.814" transform="translate(233.373 983.166)" fill="none" stroke="#fff" stroke-miterlimit="10" stroke-width="1.316"/>
    <text id="للانتاج_الصوتي_والمرئي" data-name="للانتاج الصوتي والمرئي" transform="translate(442.778 1031.179)" fill="#d3c2a7" font-size="42.12" font-family="HacenTunisiaLt, Hacen Tunisia Lt"><tspan x="-169.446" y="0">للانتاج الصوتي والمرئي</tspan></text>
    <text id="يسرنا_ان_نقدم_لكم_الحاجات_الحلوه_:_يسرنا_ان_نقدم_لكم_الحاجات_ا" data-name="يسرنا ان نقدم لكم الحاجات الحلوه :  يسرنا ان نقدم لكم الحاجات ا" transform="translate(440.939 970.505)" fill="#e1e0df" font-size="29.3" font-family="SegoeUI, Segoe UI"><tspan x="-116.049" y="0">NEW ART STUDIO</tspan></text>
    <path id="Path_1" data-name="Path 1" d="M397.755,863.416c-8.157,9.8-15.026,18.366-22.232,26.637-9.638,11.062-19.162,22.272-29.493,32.665-4.821,4.849-16.181,3.814-20.889-.3-5.344-4.667-7.945-14.763-4.063-21.1a230.631,230.631,0,0,1,16.878-23.176c14.781-18.5,29.766-36.829,44.764-55.15,6.906-8.437,13.739-16.968,21.162-24.938,5.079-5.453,11.743-6.443,18.848-3.638,6.4,2.526,11.2,9.485,11.247,17.2.1,15.583.031,31.168.031,48.991,5.264-6.052,9.391-10.676,13.385-15.413,12.709-15.069,25.032-30.482,38.173-45.163,7.977-8.911,22.585-7.175,27.538,2.379,4.1,7.9,1.909,17.167-4.313,24.892-21.351,26.508-43.029,52.753-64.64,79.05-3.409,4.148-7.19,7.987-10.677,12.073-7.08,8.3-16.69,8.717-24.08,5.988-8.889-3.283-11.239-11.9-11.526-20.483C397.436,891.04,397.755,878.123,397.755,863.416Z" fill="none" stroke="#f4f4f4" stroke-miterlimit="10" stroke-width="2.145"/>
    <path id="Path_2" data-name="Path 2" d="M484.66,925.231c-7.435,1.234-12.394-1.835-15.125-8.355-3.023-7.216-2.532-14.279,2.394-20.555,5.666-7.218,11.444-14.36,17.439-21.306,12.323-14.279,24.679-28.536,37.319-42.534,5.381-5.961,12.366-7.177,19.872-4.089a16.371,16.371,0,0,1,10.565,16.129c-.128,4.905-2.538,10.513-5.653,14.438-10.107,12.734-21.06,24.793-31.585,37.2-5.937,7-11.5,14.321-17.56,21.206C497.678,922.644,492.235,926.843,484.66,925.231Z" fill="none" stroke="#fff" stroke-miterlimit="10" stroke-width="2.145"/>
    <path id="Path_3" data-name="Path 3" d="M549.371,925.138c-9.83-.037-16.138-6.22-16.108-15.878.026-8.07,5.906-16.677,16.726-16.042,10.242.6,16.409,6.223,16.353,16.328C566.287,919.418,560.017,925.179,549.371,925.138Z" fill="#fff"/>
  </g>
</svg>
