<svg xmlns="http://www.w3.org/2000/svg" width="130" height="112.486" viewBox="0 0 130 112.486">
  <g id="Group_30" data-name="Group 30" transform="translate(-686.51 -76.678)">
    <line id="Line_21" data-name="Line 21" x1="103.983" transform="translate(697.725 178.526)" fill="none" stroke="#7a7a7a" stroke-miterlimit="10" stroke-width="1"/>
    <line id="Line_22" data-name="Line 22" x1="64.872" transform="translate(717.281 188.664)" fill="none" stroke="#7a7a7a" stroke-miterlimit="10" stroke-width="1"/>
    <g id="Group_27" data-name="Group 27">
      <text id="يسرنا_ان_نقدم_لكم_الحاجات_الحلوه_:_يسرنا_ان_نقدم_لكم_الحاجات_ا" data-name="يسرنا ان نقدم لكم الحاجات الحلوه :  يسرنا ان نقدم لكم الحاجات ا" transform="translate(751.51 161.202)" fill="#878686" font-size="17.191" font-family="HacenTunisiaBold, Hacen Tunisia"><tspan x="-64.716" y="0">NEW ART STUDIO</tspan></text>
      <path id="Path_37" data-name="Path 37" d="M727.555,111.39c-4.015,4.825-7.4,9.04-10.942,13.111-4.745,5.445-9.432,10.963-14.517,16.078-2.373,2.387-7.965,1.877-10.282-.147-2.63-2.3-3.911-7.267-2-10.387a113.458,113.458,0,0,1,8.308-11.407c7.275-9.1,14.651-18.128,22.033-27.146,3.4-4.152,6.762-8.351,10.416-12.274,2.5-2.684,5.78-3.171,9.277-1.791a9.246,9.246,0,0,1,5.536,8.468c.051,7.67.015,15.341.015,24.114,2.591-2.979,4.622-5.255,6.588-7.586,6.256-7.418,12.321-15,18.789-22.23,3.927-4.386,11.116-3.532,13.554,1.171,2.016,3.889.94,8.45-2.122,12.252-10.509,13.047-21.179,25.965-31.817,38.909-1.677,2.041-3.539,3.931-5.255,5.942a10.328,10.328,0,0,1-11.852,2.947c-4.375-1.616-5.532-5.857-5.673-10.081C727.4,124.987,727.555,118.629,727.555,111.39Z" fill="#797979"/>
      <path id="Path_38" data-name="Path 38" d="M770.33,141.816c-3.659.607-6.1-.9-7.445-4.112a9.515,9.515,0,0,1,1.179-10.117c2.789-3.553,5.633-7.069,8.583-10.487,6.066-7.029,12.148-14.046,18.369-20.936,2.649-2.934,6.087-3.532,9.781-2.013a8.058,8.058,0,0,1,5.2,7.939,12.85,12.85,0,0,1-2.782,7.107c-4.975,6.267-10.366,12.2-15.546,18.309-2.923,3.444-5.66,7.049-8.643,10.438C776.738,140.543,774.059,142.61,770.33,141.816Z" fill="#797979"/>
      <path id="Path_39" data-name="Path 39" d="M802.182,141.77c-4.839-.018-7.944-3.061-7.929-7.815.013-3.972,2.907-8.209,8.232-7.9,5.042.3,8.077,3.063,8.049,8.037C810.507,138.955,807.421,141.79,802.182,141.77Z" fill="#797979"/>
    </g>
  </g>
</svg>
